<svg width="25" height="24" viewBox="0 0 25 24" fill="none" xmlns="http://www.w3.org/2000/svg">
<path d="M19.997 7.98903L12.5 15.297L5.00299 7.98903C4.86905 7.85819 4.68923 7.78495 4.50199 7.78495C4.31475 7.78495 4.13494 7.85819 4.00099 7.98903C3.93614 8.05257 3.88461 8.12842 3.84944 8.21213C3.81426 8.29584 3.79614 8.38573 3.79614 8.47653C3.79614 8.56733 3.81426 8.65721 3.84944 8.74092C3.88461 8.82463 3.93614 8.90048 4.00099 8.96403L11.9765 16.74C12.1166 16.8765 12.3044 16.953 12.5 16.953C12.6956 16.953 12.8834 16.8765 13.0235 16.74L20.999 8.96553C21.0643 8.90193 21.1162 8.8259 21.1517 8.74191C21.1871 8.65792 21.2054 8.56769 21.2054 8.47653C21.2054 8.38537 21.1871 8.29513 21.1517 8.21114C21.1162 8.12715 21.0643 8.05112 20.999 7.98753C20.865 7.85669 20.6852 7.78345 20.498 7.78345C20.3108 7.78345 20.1309 7.85669 19.997 7.98753V7.98903Z" fill="#151317"/>
</svg>
